# xmcd
#
# Track frame offsets:
#	150
#	4620
#	18664
#	35846
#	51035
#	54774
#	67956
#	81303
#	96352
#	120663
#	134430
#	154152
#	165990
#	178950
#	194507
#
# Disc length: 2824 seconds
#
# Revision: 0
# Processed by: cddbd v1.5.2PL0 Copyright (c) Steve Scherf et al.
# Submitted via: EasyCDDAExtractor 16.0.6.1
#
DISCID=c80b060f
DTITLE=Νταλγκά Θεοδώρα - Η Θεοδώρα Νταλγκά τραγουδάει Χοντρονάκο
DYEAR=2005
DGENRE=Ρεμπέτικη
TTITLE0=Κιουπρούλης Στέφανος ή Χοντρονάκος - Ντοκουμέντα
TTITLE1=Νταλγκά Θεοδώρα - Εκλογές
TTITLE2=Νταλγκά Θεοδώρα - Ο Τρωϊκός πόλεμος
TTITLE3=Ιακωβίδης Αγάθωνας - Μάγκας, κύριος και μπέσα
TTITLE4=Νταλγκά Θεοδώρα - Ζάχαρη
TTITLE5=Νταλγκά Θεοδώρα - Μητρώο καθαρό
TTITLE6=Νταλγκά Θεοδώρα - Ο κόσμος άλλαξε
TTITLE7=Νταλγκά Θεοδώρα - Η ζωή μπροστά πηγαίνει
TTITLE8=Κιουπρούλης Στέφανος ή Χοντρονάκος - Χασίσι ήπιε κι ο Θεός (Η λειτουργ
TTITLE8=ία)
TTITLE9=Νταλγκά Θεοδώρα - Μάγκα μου συμμορφώσου
TTITLE10=Νταλγκά Θεοδώρα - Στεφάνι σού 'βαλα
TTITLE11=Νταλγκά Θεοδώρα - Κοίτα ρε κόσμε
TTITLE12=Ιακωβίδης Αγάθωνας-Νταλγκά Θεοδώρα - Αχάριστη
TTITLE13=Νταγκά Θεοδώρα - Σαν σκουπίδι
TTITLE14=Νταγκά Θεοδώρα - Ο θρήνος της Σαλονίκης (α. Τέσσερις μάγκες, β. Το κα
TTITLE14=ρφί)
EXTD=
EXTT0=
EXTT1=
EXTT2=
EXTT3=
EXTT4=
EXTT5=
EXTT6=
EXTT7=
EXTT8=
EXTT9=
EXTT10=
EXTT11=
EXTT12=
EXTT13=
EXTT14=
PLAYORDER=
